<svg width="1600" height="900" viewBox="0 0 1600 900" fill="none" xmlns="http://www.w3.org/2000/svg">
  <defs>
    <linearGradient id="bg" x1="0" y1="0" x2="1600" y2="900" gradientUnits="userSpaceOnUse">
      <stop stop-color="#0E2230"/>
      <stop offset="0.5" stop-color="#163D3A"/>
      <stop offset="1" stop-color="#12273C"/>
    </linearGradient>
    <radialGradient id="glow1" cx="0" cy="0" r="1" gradientUnits="userSpaceOnUse" gradientTransform="translate(430 340) rotate(90) scale(280 420)">
      <stop stop-color="#2ECC71" stop-opacity="0.45"/>
      <stop offset="1" stop-color="#2ECC71" stop-opacity="0"/>
    </radialGradient>
    <radialGradient id="glow2" cx="0" cy="0" r="1" gradientUnits="userSpaceOnUse" gradientTransform="translate(1180 260) rotate(90) scale(230 320)">
      <stop stop-color="#38BDF8" stop-opacity="0.28"/>
      <stop offset="1" stop-color="#38BDF8" stop-opacity="0"/>
    </radialGradient>
    <radialGradient id="sunMist" cx="0" cy="0" r="1" gradientUnits="userSpaceOnUse" gradientTransform="translate(980 180) rotate(90) scale(180 280)">
      <stop stop-color="#FDE68A" stop-opacity="0.22"/>
      <stop offset="1" stop-color="#FDE68A" stop-opacity="0"/>
    </radialGradient>
    <linearGradient id="hill" x1="0" y1="0" x2="0" y2="1">
      <stop stop-color="#1C4B38"/>
      <stop offset="1" stop-color="#0B1D18"/>
    </linearGradient>
    <filter id="blur" x="-20%" y="-20%" width="140%" height="140%">
      <feGaussianBlur stdDeviation="16"/>
    </filter>
  </defs>

  <rect width="1600" height="900" fill="url(#bg)"/>
  <rect width="1600" height="900" fill="url(#glow1)"/>
  <rect width="1600" height="900" fill="url(#glow2)"/>
  <rect width="1600" height="900" fill="url(#sunMist)"/>

  <g opacity="0.2">
    <path d="M0 120C210 70 340 160 520 130C760 90 830 10 1040 35C1240 60 1370 150 1600 90V0H0V120Z" fill="#7DD3FC"/>
    <path d="M0 180C170 240 370 160 590 200C780 235 1000 145 1220 180C1350 200 1470 250 1600 220V90C1370 150 1240 60 1040 35C830 10 760 90 520 130C340 160 210 70 0 120V180Z" fill="#A7F3D0"/>
  </g>

  <g opacity="0.35" filter="url(#blur)">
    <ellipse cx="320" cy="630" rx="180" ry="40" fill="#2ECC71"/>
    <ellipse cx="860" cy="580" rx="240" ry="48" fill="#34D399"/>
    <ellipse cx="1310" cy="650" rx="210" ry="44" fill="#60A5FA"/>
  </g>

  <path d="M0 620C140 560 310 580 420 640C560 715 690 700 840 640C1010 570 1110 590 1240 650C1370 710 1490 720 1600 675V900H0V620Z" fill="url(#hill)" opacity="0.9"/>
  <path d="M0 700C120 650 240 655 340 700C450 748 560 760 700 720C840 680 970 675 1120 735C1260 790 1420 800 1600 755V900H0V700Z" fill="#0A1714"/>

  <g opacity="0.18">
    <path d="M180 660C210 630 250 610 285 620C255 650 245 690 250 730C210 720 190 695 180 660Z" fill="#D1FAE5"/>
    <path d="M1260 620C1295 585 1350 565 1395 575C1355 610 1335 660 1340 710C1290 700 1265 665 1260 620Z" fill="#DBEAFE"/>
    <path d="M760 590C800 555 850 540 890 550C850 585 830 635 835 685C790 675 770 635 760 590Z" fill="#BBF7D0"/>
  </g>
</svg>
