<svg xmlns="http://www.w3.org/2000/svg" viewBox="0 0 1920 600" width="1920" height="600">
  <defs>
    <!-- Arka plan gradyanı -->
    <linearGradient id="sky" x1="0" y1="0" x2="0" y2="1">
      <stop offset="0%" stop-color="#0a0e1a"/>
      <stop offset="40%" stop-color="#0f1b2e"/>
      <stop offset="100%" stop-color="#132a1e"/>
    </linearGradient>
    <!-- Ay ışığı -->
    <radialGradient id="moonGlow" cx="80%" cy="20%" r="25%">
      <stop offset="0%" stop-color="#fde68a" stop-opacity="0.15"/>
      <stop offset="100%" stop-color="transparent" stop-opacity="0"/>
    </radialGradient>
    <!-- Yeşil ışık -->
    <radialGradient id="greenGlow" cx="20%" cy="70%" r="40%">
      <stop offset="0%" stop-color="#2ecc71" stop-opacity="0.08"/>
      <stop offset="100%" stop-color="transparent" stop-opacity="0"/>
    </radialGradient>
    <!-- Mavi ışık -->
    <radialGradient id="blueGlow" cx="60%" cy="80%" r="35%">
      <stop offset="0%" stop-color="#38bdf8" stop-opacity="0.06"/>
      <stop offset="100%" stop-color="transparent" stop-opacity="0"/>
    </radialGradient>
  </defs>

  <!-- Gökyüzü -->
  <rect width="1920" height="600" fill="url(#sky)"/>
  <rect width="1920" height="600" fill="url(#moonGlow)"/>
  <rect width="1920" height="600" fill="url(#greenGlow)"/>
  <rect width="1920" height="600" fill="url(#blueGlow)"/>

  <!-- Yıldızlar -->
  <g fill="#fff" opacity="0.6">
    <circle cx="150" cy="60" r="1.2"/><circle cx="320" cy="90" r="0.8"/>
    <circle cx="500" cy="40" r="1"/><circle cx="700" cy="110" r="1.3"/>
    <circle cx="850" cy="55" r="0.7"/><circle cx="1050" cy="80" r="1.1"/>
    <circle cx="1200" cy="45" r="0.9"/><circle cx="1400" cy="100" r="1.2"/>
    <circle cx="1550" cy="60" r="0.8"/><circle cx="1750" cy="75" r="1"/>
    <circle cx="250" cy="150" r="0.6"/><circle cx="600" cy="170" r="0.9"/>
    <circle cx="950" cy="140" r="0.7"/><circle cx="1300" cy="160" r="1"/>
    <circle cx="1650" cy="130" r="0.8"/><circle cx="1850" cy="50" r="1.1"/>
    <circle cx="80" cy="120" r="0.9"/><circle cx="450" cy="130" r="0.7"/>
  </g>

  <!-- Ay -->
  <circle cx="1540" cy="110" r="35" fill="#fde68a" opacity="0.9"/>
  <circle cx="1552" cy="102" r="30" fill="#0f1b2e" opacity="0.85"/>

  <!-- Uzak dağlar -->
  <path d="M0 380 Q200 280 400 340 Q600 260 800 320 Q1000 250 1200 310 Q1400 270 1600 330 Q1800 290 1920 350 L1920 600 L0 600Z" fill="#0d1f18" opacity="0.7"/>

  <!-- Yakın tepeler -->
  <path d="M0 420 Q150 370 350 400 Q550 350 750 390 Q950 340 1150 380 Q1350 350 1550 400 Q1750 360 1920 410 L1920 600 L0 600Z" fill="#112a1c" opacity="0.85"/>

  <!-- Ön plan tepeler -->
  <path d="M0 470 Q250 430 500 460 Q750 420 1000 455 Q1250 425 1500 465 Q1750 435 1920 470 L1920 600 L0 600Z" fill="#163322"/>

  <!-- Ağaçlar - sol grup -->
  <g fill="#0d2818" opacity="0.9">
    <!-- Büyük ağaç 1 -->
    <rect x="118" y="370" width="8" height="80" fill="#1a1a10" rx="2"/>
    <ellipse cx="122" cy="350" rx="35" ry="50"/>
    <ellipse cx="110" cy="365" rx="25" ry="35"/>
    <ellipse cx="138" cy="360" rx="28" ry="38"/>
    <!-- Büyük ağaç 2 -->
    <rect x="218" y="390" width="7" height="65" fill="#1a1a10" rx="2"/>
    <ellipse cx="222" cy="370" rx="30" ry="45"/>
    <ellipse cx="210" cy="382" rx="22" ry="30"/>
    <ellipse cx="236" cy="378" rx="24" ry="33"/>
  </g>

  <!-- Ağaçlar - sağ grup -->
  <g fill="#0d2818" opacity="0.9">
    <rect x="1650" y="380" width="8" height="75" fill="#1a1a10" rx="2"/>
    <ellipse cx="1654" cy="360" rx="32" ry="48"/>
    <ellipse cx="1642" cy="372" rx="24" ry="34"/>
    <ellipse cx="1670" cy="368" rx="26" ry="36"/>
    <rect x="1770" y="395" width="7" height="60" fill="#1a1a10" rx="2"/>
    <ellipse cx="1774" cy="378" rx="28" ry="40"/>
    <ellipse cx="1762" cy="388" rx="20" ry="28"/>
    <ellipse cx="1788" cy="385" rx="22" ry="30"/>
  </g>

  <!-- Aslan silueti (ortada uzakta) -->
  <g transform="translate(920, 410) scale(0.8)" fill="#132a1e" opacity="0.6">
    <!-- Gövde -->
    <ellipse cx="0" cy="0" rx="45" ry="22"/>
    <!-- Baş -->
    <circle cx="42" cy="-12" r="16"/>
    <!-- Yele -->
    <circle cx="42" cy="-14" r="22" opacity="0.5"/>
    <!-- Bacaklar -->
    <rect x="-25" y="15" width="6" height="20" rx="2"/>
    <rect x="-10" y="15" width="6" height="22" rx="2"/>
    <rect x="15" y="15" width="6" height="22" rx="2"/>
    <rect x="28" y="15" width="6" height="20" rx="2"/>
    <!-- Kuyruk -->
    <path d="M-45 -5 Q-65 -25 -55 -10" stroke="#132a1e" stroke-width="3" fill="none"/>
  </g>

  <!-- Geyik silueti (sağda) -->
  <g transform="translate(1380, 400) scale(0.7)" fill="#112a1c" opacity="0.5">
    <!-- Gövde -->
    <ellipse cx="0" cy="0" rx="35" ry="18"/>
    <!-- Boyun ve baş -->
    <path d="M25 -10 Q30 -35 28 -45" stroke="#112a1c" stroke-width="8" fill="none" stroke-linecap="round"/>
    <circle cx="30" cy="-48" r="8"/>
    <!-- Boynuzlar -->
    <path d="M28 -55 Q20 -75 15 -78 M28 -55 Q35 -72 40 -74 M22 -68 Q15 -72 12 -70 M33 -66 Q40 -68 42 -65" stroke="#112a1c" stroke-width="2.5" fill="none" stroke-linecap="round"/>
    <!-- Bacaklar -->
    <rect x="-20" y="12" width="5" height="25" rx="2"/>
    <rect x="-8" y="12" width="5" height="27" rx="2"/>
    <rect x="8" y="12" width="5" height="27" rx="2"/>
    <rect x="18" y="12" width="5" height="25" rx="2"/>
  </g>

  <!-- Kuş siluetleri -->
  <g stroke="#c8c8c8" stroke-width="1.5" fill="none" opacity="0.3">
    <path d="M750 180 Q758 170 766 180 M766 180 Q774 170 782 180"/>
    <path d="M800 160 Q806 152 812 160 M812 160 Q818 152 824 160"/>
    <path d="M770 200 Q775 193 780 200 M780 200 Q785 193 790 200"/>
    <path d="M680 150 Q688 140 696 150 M696 150 Q704 140 712 150"/>
  </g>

  <!-- Çim detayları -->
  <g stroke="#1e4a2a" stroke-width="1.5" fill="none" opacity="0.5">
    <path d="M50 520 Q55 500 52 485"/><path d="M60 518 Q63 502 58 490"/>
    <path d="M350 510 Q355 492 352 478"/><path d="M360 512 Q363 496 358 484"/>
    <path d="M700 505 Q705 488 702 475"/><path d="M710 508 Q713 492 708 480"/>
    <path d="M1100 510 Q1105 493 1102 480"/><path d="M1110 512 Q1113 496 1108 484"/>
    <path d="M1500 515 Q1505 498 1502 485"/><path d="M1510 517 Q1513 500 1508 488"/>
    <path d="M1850 510 Q1855 493 1852 480"/><path d="M1860 512 Q1863 496 1858 484"/>
  </g>

  <!-- Alt gradyan (karartma) -->
  <rect y="480" width="1920" height="120" fill="url(#sky)" opacity="0.4"/>
</svg>